# xmcd
#
# Track frame offsets:
#	150
#	11436
#	27058
#	31803
#	43209
#	54008
#	64838
#	74998
#	85937
#	97075
#	110212
#
# Disc length: 1632 seconds
#
# Revision: 0
# Processed by: cddbd v1.4PL0 Copyright (c) Steve Scherf et al.
# Submitted via: EasyCDDAExtractor 5.0.4.1
#
DISCID=94065e0b
DTITLE=Filhos do Totem - O Que Me Faz Viver
DYEAR=2003
DGENRE=Hardcore
TTITLE0=Nada Demais
TTITLE1=Maresia
TTITLE2=Calmaria
TTITLE3=Sessao
TTITLE4=Será
TTITLE5=Ondas de Poluicao
TTITLE6=O Que Me Faz Viver
TTITLE7=Vou Me Libertar
TTITLE8=Um Cara Legal
TTITLE9=Super-Herói
TTITLE10=Seu Lugar
EXTD=
EXTT0=
EXTT1=
EXTT2=
EXTT3=
EXTT4=
EXTT5=
EXTT6=
EXTT7=
EXTT8=
EXTT9=
EXTT10=
PLAYORDER=
